<?xml version="1.0" encoding="UTF-8"?>
<svg id="Layer_2" data-name="Layer 2" xmlns="http://www.w3.org/2000/svg" xmlns:xlink="http://www.w3.org/1999/xlink" viewBox="0 0 168.21 50.58">
  <defs>
    <style>
      .cls-1 {
        fill: #fff;
      }

      .cls-2 {
        fill: url(#Gold-5);
      }

      .cls-3 {
        fill: url(#Gold-2);
      }

      .cls-4 {
        fill: url(#Gold);
      }

      .cls-5 {
        fill: url(#Gold-4);
      }

      .cls-6 {
        fill: url(#Gold-6);
      }

      .cls-7 {
        fill: url(#Gold-8);
      }

      .cls-8 {
        fill: url(#Gold-7);
      }

      .cls-9 {
        fill: url(#Gold-3);
      }
    </style>
    <linearGradient id="Gold" x1="8.43" y1="5.5" x2="7.86" y2="35.44" gradientUnits="userSpaceOnUse">
      <stop offset="0" stop-color="#fbc926"/>
      <stop offset=".25" stop-color="#fffbcc"/>
      <stop offset=".3" stop-color="#f8efba"/>
      <stop offset=".41" stop-color="#e7d18d"/>
      <stop offset=".55" stop-color="#cca246"/>
      <stop offset=".6" stop-color="#c3922e"/>
      <stop offset=".87" stop-color="#eed688"/>
      <stop offset="1" stop-color="#fffbcc"/>
    </linearGradient>
    <linearGradient id="Gold-2" data-name="Gold" x1="27.3" y1="5.86" x2="26.73" y2="35.79" xlink:href="#Gold"/>
    <linearGradient id="Gold-3" data-name="Gold" x1="48.07" y1="6.25" x2="47.5" y2="36.19" xlink:href="#Gold"/>
    <linearGradient id="Gold-4" data-name="Gold" x1="65.57" y1="6.58" x2="65" y2="36.52" xlink:href="#Gold"/>
    <linearGradient id="Gold-5" data-name="Gold" x1="89.78" y1="7.04" x2="89.21" y2="36.98" xlink:href="#Gold"/>
    <linearGradient id="Gold-6" data-name="Gold" x1="108.88" y1="7.41" x2="108.31" y2="37.34" xlink:href="#Gold"/>
    <linearGradient id="Gold-7" data-name="Gold" x1="127.3" y1="7.76" x2="126.73" y2="37.69" xlink:href="#Gold"/>
    <linearGradient id="Gold-8" data-name="Gold" x1="144.49" y1="8.08" x2="143.92" y2="38.02" xlink:href="#Gold"/>
  </defs>
  <g id="_Ñëîé_1" data-name="Ñëîé 1">
    <g>
      <g>
        <path class="cls-4" d="m12.84,25.54H3.25v6.72c0,.63.03,1.03.09,1.21.06.17.17.32.33.44.16.12.44.18.85.18v.18H0v-.18c.82.06,1.23-.34,1.23-1.2v-14.04c0-.8-.07-1.3-.2-1.52s-.48-.33-1.04-.36v-.18h4.52v.18c-.5.03-.83.13-1.01.28s-.26.48-.26.97v6.83h9.59v-6.25c0-.71-.06-1.2-.18-1.45s-.46-.39-1.03-.39v-.18h4.46v.18c-.35,0-.62.04-.79.12-.17.08-.29.21-.35.38s-.09.62-.09,1.33v13.4c0,.69.03,1.12.09,1.29s.17.31.33.42c.16.11.43.17.81.17v.18h-4.46v-.18c.48,0,.8-.1.97-.3.16-.2.24-.73.24-1.6v-6.64Z"/>
        <path class="cls-3" d="m27.65,16.53c2.45,0,4.46.75,6.01,2.24,1.56,1.49,2.34,3.35,2.34,5.58,0,2.87-.9,5.29-2.7,7.25s-4.19,2.94-7.18,2.94c-2.42,0-4.4-.79-5.94-2.37-1.54-1.58-2.31-3.48-2.31-5.69,0-1.49.37-3.03,1.11-4.6.74-1.57,1.86-2.86,3.36-3.85,1.49-.99,3.27-1.49,5.31-1.49Zm-.07,17.08c1.2,0,2.39-.32,3.56-.97,1.17-.64,2.09-1.53,2.76-2.66.67-1.13,1.01-2.29,1.01-3.49,0-1.69-.45-3.23-1.36-4.61-.91-1.38-2.08-2.47-3.52-3.25-1.44-.78-2.78-1.17-4-1.17-1.73,0-3.3.65-4.71,1.96-1.41,1.3-2.12,2.93-2.12,4.86,0,2.48.86,4.65,2.59,6.52,1.72,1.87,3.66,2.81,5.8,2.81Z"/>
        <path class="cls-9" d="m53.72,16.79h2.76v.18c-.93.05-1.4.53-1.4,1.46,0,.2.02.47.07.82l1.84,13.23c.11.66.24,1.08.37,1.27.14.18.42.3.86.34v.18h-3.93v-.18c.52.02.79-.24.79-.75,0-.12-.02-.35-.07-.7l-1.79-12.83-6.26,14.46h-.12l-6.3-14.43-1.77,12.9c-.03.2-.05.42-.05.67,0,.45.27.68.8.68v.18h-2.67v-.18c.4,0,.66-.05.78-.15.11-.1.2-.26.27-.47.06-.22.11-.46.14-.73l2-14.11c-.33-.78-.65-1.25-.98-1.41-.32-.16-.64-.24-.94-.24v-.18h3.29l6.14,14.29,6.16-14.29Z"/>
        <path class="cls-5" d="m59.24,16.99v-.2h10.98v2.41h-.18c-.24-.89-.44-1.42-.6-1.58s-.56-.24-1.19-.24h-5.76v7.84h5.35c.53,0,.87-.05,1.01-.15.14-.1.22-.24.23-.43h.18v1.65h-.18c-.04-.23-.13-.38-.28-.46-.15-.08-.42-.12-.81-.12h-5.49v5.4c0,.81.07,1.4.22,1.76.15.36.39.59.72.68.33.09.82.14,1.49.14h3.08c.98,0,1.6-.03,1.88-.1.27-.07.5-.2.69-.4.19-.2.34-.64.44-1.31h.18v2.4h-11.94v-.18c.4-.02.71-.1.92-.23.21-.13.31-.47.31-1.01v-14.1c0-.64-.06-1.09-.17-1.35s-.47-.39-1.07-.39Z"/>
        <path class="cls-2" d="m95.44,16.79h2.76v.18c-.93.05-1.4.53-1.4,1.46,0,.2.02.47.07.82l1.84,13.23c.11.66.23,1.08.37,1.27.14.18.42.3.86.34v.18h-3.93v-.18c.52.02.78-.24.78-.75,0-.12-.02-.35-.07-.7l-1.79-12.83-6.26,14.46h-.12l-6.3-14.43-1.77,12.9c-.03.2-.05.42-.05.67,0,.45.27.68.8.68v.18h-2.67v-.18c.4,0,.66-.05.78-.15.11-.1.2-.26.27-.47.06-.22.11-.46.14-.73l2-14.11c-.33-.78-.65-1.25-.98-1.41s-.64-.24-.94-.24v-.18h3.29l6.14,14.29,6.16-14.29Z"/>
        <path class="cls-6" d="m110.2,26.22h-5.13l-2.65,6.59c-.18.47-.27.77-.27.88,0,.26.19.39.58.39v.18h-2.6v-.18c.35,0,.64-.08.88-.26.24-.17.5-.61.78-1.32l6.33-15.98h.31l6.23,15.43c0,.08.16.45.48,1.12.32.67.81,1,1.46,1v.18h-4.08v-.18c.37,0,.56-.15.56-.44,0-.2-.09-.51-.27-.95-.03-.03-.06-.08-.08-.15-.02-.08-.03-.12-.04-.12l-2.5-6.2Zm-4.96-.49h4.73l-2.36-5.95-2.37,5.95Z"/>
        <path class="cls-8" d="m117.65,16.97v-.18h8.02c2.04,0,3.65.16,4.83.48,1.18.32,2.21.82,3.09,1.51s1.57,1.57,2.09,2.64c.51,1.07.77,2.27.77,3.59s-.27,2.52-.8,3.75c-.53,1.23-1.26,2.29-2.18,3.18-.92.89-1.88,1.5-2.9,1.83s-2.59.49-4.71.49h-8.21v-.18h.21c.43,0,.71-.17.84-.52s.2-.97.2-1.87v-12.72c0-.95-.08-1.52-.24-1.72-.16-.2-.5-.3-1.01-.3Zm5.95.19h-2.68v13.56c0,.85.14,1.49.43,1.9.29.42.78.72,1.48.9.7.19,1.63.28,2.81.28,3.27,0,5.57-.84,6.9-2.52s1.99-3.51,1.99-5.5c0-2.33-.91-4.35-2.72-6.06s-4.55-2.56-8.2-2.56Z"/>
        <path class="cls-7" d="m138.18,16.99v-.2h10.98v2.41h-.18c-.24-.89-.44-1.42-.6-1.58s-.56-.24-1.19-.24h-5.76v7.84h5.35c.53,0,.87-.05,1.01-.15.14-.1.22-.24.23-.43h.18v1.65h-.18c-.04-.23-.13-.38-.28-.46s-.42-.12-.81-.12h-5.49v5.4c0,.81.08,1.4.23,1.76.15.36.39.59.72.68.33.09.82.14,1.49.14h3.08c.98,0,1.6-.03,1.88-.1.27-.07.5-.2.69-.4.19-.2.34-.64.44-1.31h.18v2.4h-11.94v-.18c.4-.02.71-.1.92-.23.21-.13.31-.47.31-1.01v-14.1c0-.64-.06-1.09-.17-1.35-.11-.26-.47-.39-1.07-.39Z"/>
      </g>
      <g>
        <path class="cls-1" d="m31.91,38.99v-.12h3.29c1.17,0,2.02.13,2.55.39s.92.59,1.16.98c.24.39.36.9.36,1.54,0,.98-.34,1.71-1.01,2.2s-1.59.73-2.74.71v-.12c.73,0,1.32-.22,1.78-.67.46-.45.69-1.04.69-1.77,0-.57-.11-1.07-.33-1.52-.22-.44-.53-.78-.94-1.01-.4-.23-1.02-.34-1.84-.34h-.82v9.86c0,.56.06.89.19,1,.13.11.36.16.71.16v.12h-3.04v-.12c.54,0,.81-.25.81-.74v-9.54c0-.41-.05-.68-.16-.81-.1-.13-.32-.2-.66-.2Z"/>
        <path class="cls-1" d="m40.4,38.99v-.12h3.27c.83,0,1.43.02,1.8.06.37.04.75.16,1.14.36.39.21.68.49.88.84.2.35.3.79.3,1.3,0,.58-.18,1.14-.53,1.67-.35.53-.85.98-1.49,1.34l.81,1.25c.18.31.65,1,1.41,2.06.76,1.06,1.36,1.7,1.77,1.94.42.23.82.35,1.21.35s.83-.15,1.33-.45l.05.16c-.62.51-1.44.77-2.44.77-.67,0-1.24-.2-1.72-.59-.48-.39-1.31-1.48-2.5-3.25-.01,0-.02-.02-.02-.03l-1.16-1.78-1.03.03h-.93v4.41c0,.35.05.61.14.76.09.15.32.23.67.23v.12h-2.97v-.12c.37-.02.6-.09.69-.23.09-.14.14-.43.14-.86v-9.16c0-.3-.04-.54-.12-.74-.08-.2-.32-.3-.71-.3Zm2.16.19v5.41h1.21c.95,0,1.66-.22,2.12-.67.46-.45.69-1.04.69-1.77s-.22-1.38-.68-2.02c-.45-.63-1.25-.95-2.39-.95h-.95Z"/>
        <path class="cls-1" d="m57.25,38.7c1.62,0,2.94.49,3.97,1.48,1.03.98,1.54,2.21,1.54,3.68,0,1.89-.59,3.49-1.79,4.78-1.19,1.29-2.77,1.94-4.74,1.94-1.6,0-2.9-.52-3.92-1.57s-1.53-2.3-1.53-3.76c0-.99.25-2,.74-3.04.49-1.04,1.23-1.89,2.21-2.54.99-.65,2.16-.98,3.51-.98Zm-.05,11.27c.79,0,1.58-.21,2.35-.64.77-.43,1.38-1.01,1.82-1.76s.67-1.51.67-2.3c0-1.12-.3-2.13-.9-3.05-.6-.91-1.37-1.63-2.33-2.15-.95-.52-1.83-.77-2.64-.77-1.14,0-2.18.43-3.11,1.29-.93.86-1.4,1.93-1.4,3.21,0,1.63.57,3.07,1.71,4.3,1.14,1.24,2.41,1.86,3.83,1.86Z"/>
        <path class="cls-1" d="m63.9,38.99v-.12h5.29c1.35,0,2.41.11,3.19.32.78.21,1.46.54,2.04,1,.58.45,1.04,1.03,1.38,1.74s.51,1.5.51,2.37-.18,1.67-.53,2.48-.83,1.51-1.44,2.1-1.24.99-1.91,1.21c-.67.22-1.71.33-3.11.33h-5.42v-.12h.14c.28,0,.47-.11.56-.34.09-.23.13-.64.13-1.23v-8.39c0-.63-.05-1-.16-1.13-.11-.13-.33-.2-.67-.2Zm3.93.12h-1.77v8.95c0,.56.09.98.29,1.26.19.27.52.47.97.59.46.12,1.08.18,1.86.18,2.16,0,3.68-.55,4.55-1.66.87-1.11,1.31-2.32,1.31-3.63,0-1.54-.6-2.87-1.8-4-1.2-1.13-3-1.69-5.41-1.69Z"/>
        <path class="cls-1" d="m88.19,50.4h-2.18v-1.78c-1.11,1.24-2.43,1.86-3.97,1.86-1.14,0-2.05-.32-2.72-.96s-1-1.53-1-2.66v-6.9c0-.42-.05-.68-.15-.79-.1-.11-.33-.17-.7-.17v-.12h3.06v.12c-.32,0-.55.05-.69.15-.13.1-.2.34-.2.72v6.33c0,1.33.31,2.27.93,2.84.62.57,1.33.85,2.12.85,1.25,0,2.35-.56,3.32-1.68v-7.81c0-.68-.06-1.09-.18-1.22-.12-.13-.31-.19-.56-.19h-.11v-.12h3.04v.12c-.38.02-.61.08-.71.19-.1.1-.14.3-.14.59v9.39c0,.37.02.61.05.73.04.12.11.21.22.29.11.08.3.11.58.11v.12Z"/>
        <path class="cls-1" d="m99.4,39.45l.43,1.22h-.12c-1.12-1.11-2.43-1.67-3.94-1.67s-2.84.47-3.81,1.4c-.97.93-1.45,2.06-1.45,3.39,0,.82.22,1.76.65,2.83s1.11,1.94,2.04,2.63c.93.69,2.05,1.03,3.37,1.03.87,0,1.72-.14,2.55-.42.83-.28,1.45-.65,1.86-1.12l.1.03-.81,1.24c-1.3.28-2.15.45-2.54.5-.39.05-.91.08-1.56.08-2.42,0-4.14-.56-5.19-1.68-1.04-1.12-1.56-2.46-1.56-4.02,0-1.05.27-2.07.8-3.04.54-.97,1.31-1.74,2.31-2.3,1.01-.56,2.16-.84,3.45-.84.65,0,1.21.06,1.68.18.47.12.87.24,1.18.36l.52.2s.03.01.03.02Z"/>
        <path class="cls-1" d="m110.91,38.47l-.55,1.39h-.12c.02-.08.03-.2.03-.34,0-.12-.04-.2-.13-.23-.09-.03-.22-.05-.41-.05h-3.01v9.86c0,.41.03.68.1.83.06.15.15.24.27.28s.29.06.54.06v.12h-3.12v-.12c.39-.03.64-.1.74-.23.1-.12.15-.39.15-.78v-10.03h-2.88c-.29,0-.48.02-.57.05-.09.03-.13.12-.13.25,0,.07.02.17.06.31h-.12l-.55-1.39h.12c.09.19.19.3.28.34.09.04.29.06.59.06h7.65c.3,0,.52-.02.65-.06s.23-.15.29-.34h.12Z"/>
        <path class="cls-1" d="m117.05,39.02l.55,1.44-.09.02s-.15-.16-.43-.46c-.29-.3-.62-.54-.99-.7s-.79-.25-1.26-.25c-.79,0-1.41.23-1.88.68-.46.45-.69,1-.69,1.63,0,.42.11.79.32,1.11.22.32.67.61,1.36.88,1.18.4,1.99.7,2.43.9.44.2.86.54,1.26,1.02.41.48.61,1.09.61,1.85,0,.31-.04.61-.11.9-.07.28-.19.56-.35.82-.16.26-.36.5-.58.72-.23.22-.46.38-.69.49-.24.11-.61.2-1.11.25-.51.06-.84.09-1,.09h-3.08v-3.35h.12c.01,1.11.27,1.89.78,2.33.51.44,1.31.66,2.39.66.98,0,1.73-.23,2.23-.7s.76-1.02.76-1.68c0-.4-.09-.73-.27-1.01-.18-.28-.42-.52-.74-.74-.32-.21-.92-.47-1.81-.77-.88-.31-1.5-.58-1.86-.81-.36-.23-.66-.58-.9-1.05-.24-.47-.36-.94-.36-1.43,0-.89.31-1.64.92-2.24.61-.6,1.42-.91,2.42-.91.39,0,.8.04,1.25.13s.7.15.75.17c.02.01.04.02.06.02Z"/>
      </g>
      <g>
        <path class="cls-1" d="m168.21,6.56c-5.85-2.47-14.5-.61-17.82,5.44.06-1.38.43-2.87-.06-4.24,0,0,0,0,0,0,0-.02-.02-.04-.03-.07,0,0,0,0,0,0-.52-3.54-3.46-6.26-6.61-7.69-.89.26-1.18,3.3-1.32,4.28-.36,3.9,2.05,7.53,5.36,9.43.29.17.42.11.45-.22.19-2.17.33-4.59-.86-6.51.25.88.94,5.2.05,5.37-1.7-1.52-3.34-3.31-3.85-5.6-.48-1.7-.34-3.52.26-5.18,1.22-.32,3.67,2.32,4.36,3.46.01.07.05.13.11.17.01.07.03.14.1.18.68,1.28,1.02,2.76,1.2,4.19.1,2.02-.09,4.03-.65,5.99,2.65-4.66,7.24-8.7,12.89-8.65.58-.04,5.19.28,4.27,1.09-2.52,5.35-7.98,7.91-13.6,7.28-.08-.22-.4-.15-.11-.38,2.33-2.87,5.55-5.1,9.23-5.78-3.6-.05-7.07,1.81-9.44,4.43,0,0,0,0,0,0-.39.39-1.98,1.88-1.66,2.29,1.83.53,3.71.76,5.61.62,5.65-.32,10.13-4.87,12.11-9.91Z"/>
        <path class="cls-1" d="m147.27,6.8s-.02,0-.03,0c.02.03.03.03.03,0Z"/>
        <path class="cls-1" d="m147.31,6.94s0-.04-.02-.04c.03-.08-.1-.05-.01,0,0,.02,0,.05.03.04Z"/>
      </g>
    </g>
  </g>
</svg>